<?xml version="1.0" standalone="no"?>
<!DOCTYPE svg PUBLIC "-//W3C//DTD SVG 20010904//EN"
 "http://www.w3.org/TR/2001/REC-SVG-20010904/DTD/svg10.dtd">
<svg version="1.0" xmlns="http://www.w3.org/2000/svg"
 width="1281.000000pt" height="1281.000000pt" viewBox="0 0 1281.000000 1281.000000"
 preserveAspectRatio="xMidYMid meet">
<metadata>
Created by potrace 1.14, written by Peter Selinger 2001-2017
</metadata>
<g transform="translate(0.000000,1281.000000) scale(0.100000,-0.100000)"
fill="#000000" stroke="none">
<path d="M5370 10954 c-291 -51 -547 -226 -718 -489 -24 -38 -89 -181 -105
-230 -17 -55 -48 -190 -46 -202 4 -21 -2 -79 -9 -90 -6 -10 -42 -16 -182 -28
-31 -3 -76 -7 -205 -20 -22 -2 -62 -7 -90 -9 -58 -7 -117 -12 -265 -26 -58 -6
-121 -12 -140 -15 -19 -2 -66 -7 -105 -10 -38 -3 -83 -8 -100 -10 -16 -2 -61
-7 -100 -10 -38 -4 -86 -8 -105 -10 -89 -10 -166 -17 -199 -20 -35 -3 -134
-13 -196 -20 -85 -10 -195 -19 -233 -19 l-44 -1 -32 95 c-163 487 -630 784
-1141 726 -263 -30 -552 -192 -702 -394 -16 -20 -30 -39 -33 -42 -11 -10 -60
-90 -60 -96 0 -4 -6 -15 -14 -23 -17 -20 -63 -136 -87 -219 -28 -97 -34 -156
-33 -307 1 -153 18 -239 74 -379 105 -265 318 -476 593 -588 61 -25 103 -36
249 -68 39 -8 266 -6 304 3 12 3 39 8 60 11 57 10 203 62 270 97 235 124 420
335 509 580 15 41 29 82 31 92 11 46 15 67 24 124 6 34 10 66 9 70 -9 52 1 57
121 68 36 3 81 8 100 10 33 4 85 9 205 20 99 9 170 16 200 20 17 2 66 7 110
11 44 3 87 8 96 9 8 2 53 6 100 10 46 3 91 8 99 10 8 2 53 7 100 10 47 4 92 8
100 10 8 2 53 6 100 10 47 3 96 8 110 10 14 2 54 6 90 10 65 6 115 11 200 19
25 3 77 8 115 11 39 3 82 8 98 11 15 3 27 2 28 -3 4 -49 46 -163 94 -257 67
-131 173 -260 290 -351 28 -22 51 -40 52 -40 2 -1 -62 -129 -142 -286 -79
-156 -193 -380 -252 -497 -123 -242 -95 -221 -238 -183 -118 32 -313 35 -451
6 -13 -3 -35 -7 -49 -10 -14 -3 -57 -17 -97 -31 -351 -126 -614 -434 -684
-800 -16 -85 -23 -288 -11 -344 3 -14 8 -43 12 -65 32 -179 134 -379 266 -519
285 -305 715 -415 1114 -284 268 87 492 281 621 539 20 39 37 77 38 83 1 6 7
25 13 41 74 186 75 471 3 685 -67 199 -205 391 -367 511 l-52 39 114 222 c63
123 142 279 177 348 35 69 99 193 141 277 l78 152 37 -14 c101 -38 177 -49
332 -49 126 0 171 4 243 22 107 27 213 70 301 123 l65 39 39 -42 c90 -100 188
-210 327 -368 27 -30 54 -60 59 -66 6 -6 34 -37 61 -69 28 -32 55 -63 60 -69
13 -13 240 -268 277 -311 15 -16 36 -41 48 -55 12 -14 52 -59 89 -100 59 -66
141 -157 395 -444 33 -37 74 -84 91 -104 16 -19 48 -54 70 -78 22 -23 60 -66
84 -94 25 -29 51 -58 58 -65 7 -8 9 -15 4 -17 -14 -5 -107 -139 -138 -198 -72
-137 -109 -265 -121 -420 -34 -425 191 -829 573 -1027 75 -39 202 -85 270 -97
17 -3 46 -8 65 -12 65 -11 223 -10 310 3 467 69 826 431 899 907 12 84 6 278
-12 361 -34 156 -96 292 -193 421 l-53 71 61 69 c75 85 170 192 224 253 23 25
63 71 90 102 27 30 78 87 113 127 35 39 71 80 80 90 32 38 147 168 196 222 28
31 80 89 116 130 74 85 296 336 373 422 l50 56 50 -29 c170 -100 334 -148 526
-154 535 -18 1006 374 1083 900 31 212 1 425 -87 611 -78 164 -165 274 -304
385 -323 259 -771 305 -1137 119 -367 -187 -584 -537 -588 -950 -1 -131 17
-239 62 -365 24 -65 108 -220 152 -278 l51 -68 -23 -27 c-13 -15 -27 -29 -30
-32 -3 -3 -92 -104 -199 -225 -107 -121 -199 -225 -204 -231 -6 -6 -36 -39
-66 -74 -30 -35 -74 -84 -96 -109 -34 -38 -157 -177 -389 -440 -17 -19 -35
-39 -41 -45 -10 -11 -245 -278 -250 -285 -2 -2 -34 15 -72 37 -101 60 -210
101 -337 128 -90 18 -237 23 -335 10 -142 -18 -273 -62 -394 -133 l-80 -45
-34 38 c-20 22 -54 59 -76 84 -23 25 -72 81 -111 125 -38 44 -72 82 -75 85 -5
5 -201 227 -250 284 -14 16 -36 40 -50 55 -14 14 -57 62 -95 106 -39 44 -72
82 -75 85 -3 3 -41 46 -85 95 -79 89 -121 138 -160 181 -11 12 -47 53 -80 90
-33 37 -152 172 -265 299 -113 127 -228 258 -256 290 l-51 60 54 70 c127 167
203 391 207 614 8 461 -276 867 -720 1025 -145 52 -369 69 -534 40z m366 -334
c323 -82 553 -368 559 -695 1 -49 -2 -106 -6 -125 -4 -19 -10 -48 -12 -65 -31
-189 -215 -411 -417 -502 -284 -129 -620 -61 -837 169 -97 104 -155 218 -190
373 -11 52 -10 198 2 262 57 301 301 545 595 596 73 13 231 6 306 -13z m-4071
-401 c172 -42 318 -141 420 -284 76 -107 112 -195 130 -317 19 -129 6 -253
-40 -373 -86 -230 -288 -403 -535 -460 -105 -24 -275 -15 -378 20 -254 86
-436 287 -498 551 -13 55 -12 238 1 300 49 226 197 414 409 517 34 16 66 30
71 32 6 1 29 7 52 14 113 32 239 32 368 0z m9795 17 c186 -27 377 -150 489
-314 39 -58 88 -155 97 -192 25 -109 31 -158 28 -245 -3 -123 -21 -193 -80
-313 -37 -76 -61 -110 -127 -176 -95 -95 -175 -145 -302 -189 -82 -28 -101
-31 -220 -31 -117 -1 -139 2 -220 28 -281 92 -476 321 -514 605 -42 319 122
622 415 763 77 38 143 58 214 65 25 3 46 6 48 8 4 3 131 -3 172 -9z m-7185
-2500 c149 -40 313 -150 402 -269 320 -431 98 -1042 -424 -1163 -365 -85 -737
125 -862 484 -28 82 -32 106 -35 227 -6 204 69 384 224 535 102 100 229 167
369 195 83 17 246 12 326 -9z m4536 -571 c396 -103 637 -507 535 -895 -27
-100 -51 -156 -101 -230 -101 -149 -258 -260 -435 -307 -88 -23 -272 -22 -359
1 -207 56 -381 197 -476 386 -157 311 -72 691 202 908 93 73 236 136 336 148
29 4 54 8 56 10 10 9 186 -7 242 -21z"/>
<path d="M1169 6206 c-2 -2 -53 -6 -114 -10 -126 -7 -374 -43 -470 -68 -22 -6
-52 -12 -67 -15 -15 -2 -47 -10 -70 -16 l-43 -13 0 -252 c0 -249 0 -253 20
-248 128 35 213 58 225 60 8 2 33 7 55 11 22 5 45 9 50 11 152 37 476 58 615
40 241 -32 332 -63 591 -201 11 -5 19 -13 19 -17 0 -5 5 -8 10 -8 24 0 348
-262 500 -404 31 -30 103 -90 160 -136 24 -19 48 -40 54 -45 6 -6 52 -40 101
-77 298 -220 600 -344 985 -402 173 -27 562 -27 735 -1 17 2 66 9 110 15 44 7
112 18 150 27 39 8 81 17 95 19 14 3 88 20 165 40 129 32 232 66 760 247 105
36 204 68 220 71 17 2 52 9 80 14 27 6 86 10 132 10 207 0 397 -95 699 -350
67 -57 175 -148 240 -203 281 -237 499 -370 724 -439 156 -49 147 -47 235 -61
143 -24 374 -31 495 -14 107 14 134 18 165 24 29 5 80 16 100 21 6 2 19 5 30
7 257 59 597 205 925 400 186 110 601 400 745 520 63 52 318 257 397 319 287
224 634 416 853 472 192 48 391 39 517 -25 20 -10 39 -19 42 -19 2 0 4 119 4
264 l0 263 -51 12 c-148 32 -358 36 -504 8 -305 -58 -616 -203 -973 -451 -86
-59 -317 -234 -341 -259 -62 -60 -511 -396 -699 -524 -398 -269 -821 -469
-1100 -519 -14 -2 -35 -6 -47 -9 -124 -28 -404 -26 -526 4 -183 44 -315 106
-483 228 -92 65 -113 83 -338 277 -368 317 -594 454 -841 512 -103 24 -109 25
-240 28 -107 3 -173 -2 -278 -19 -90 -15 -286 -75 -497 -152 -129 -47 -262
-94 -295 -105 -73 -23 -288 -86 -318 -93 -385 -83 -442 -90 -722 -90 -199 0
-267 5 -378 26 -207 39 -421 126 -597 243 -71 46 -263 197 -340 266 -69 62
-96 86 -170 150 -41 36 -77 67 -80 70 -39 41 -260 208 -360 272 -276 178 -617
281 -949 287 -52 1 -98 4 -101 6 -4 3 -9 3 -11 1z"/>
<path d="M1138 4265 c-2 -2 -28 -6 -59 -9 -31 -4 -65 -8 -75 -10 -11 -2 -41
-7 -69 -10 -104 -14 -445 -93 -505 -116 l-25 -10 0 -253 c1 -152 5 -251 11
-251 5 1 54 16 109 32 224 69 465 120 640 137 73 6 295 7 330 1 11 -2 47 -7
80 -10 77 -9 228 -49 313 -82 129 -51 269 -137 423 -260 78 -63 123 -101 274
-234 181 -159 381 -322 436 -355 10 -5 55 -33 101 -62 176 -109 361 -187 563
-238 72 -18 151 -36 175 -39 25 -3 54 -8 66 -10 136 -27 615 -28 750 -2 12 2
45 8 75 11 95 13 108 15 179 30 14 3 39 8 55 11 170 30 480 123 805 241 322
117 433 145 580 146 132 1 200 -14 312 -67 63 -30 234 -136 248 -155 3 -3 23
-20 45 -36 22 -16 117 -95 210 -175 320 -274 446 -366 625 -457 155 -78 265
-117 442 -154 174 -37 486 -34 698 6 217 40 499 139 743 261 292 146 603 345
927 592 87 67 321 253 330 262 22 23 238 189 344 264 141 100 261 173 387 236
76 39 218 99 249 105 8 2 42 11 75 19 109 30 240 38 352 22 l52 -7 0 246 c0
217 -2 247 -16 252 -23 9 -247 9 -318 0 -33 -4 -89 -14 -125 -23 -36 -8 -75
-17 -87 -19 -42 -10 -225 -76 -291 -106 -158 -71 -334 -170 -487 -272 -66 -44
-287 -206 -295 -216 -3 -4 -75 -62 -160 -130 -85 -67 -164 -130 -175 -139 -77
-65 -414 -306 -550 -394 -402 -262 -761 -419 -1090 -477 -160 -29 -392 -23
-527 12 -176 46 -316 116 -483 241 -68 51 -260 208 -275 226 -15 17 -256 215
-325 266 -416 311 -767 379 -1251 243 -59 -16 -148 -45 -198 -63 -323 -120
-492 -178 -585 -202 -9 -2 -75 -19 -147 -38 -111 -29 -258 -57 -414 -80 -154
-23 -514 -24 -600 -1 -8 2 -32 6 -52 9 -21 3 -59 11 -85 17 -27 6 -55 12 -64
14 -42 9 -203 67 -274 100 -87 39 -198 106 -285 169 -49 36 -265 214 -301 248
-8 7 -50 44 -94 83 -44 38 -82 72 -85 76 -20 24 -283 226 -355 274 -247 163
-511 262 -793 298 -86 12 -474 21 -484 12z"/>
</g>
</svg>
