<?xml version="1.0" encoding="UTF-8"?><svg id="Layer_1" xmlns="http://www.w3.org/2000/svg" viewBox="0 0 1280 1280"><defs><style>.cls-1{fill:#478fcc;}.cls-2{fill:#4daf4e;}</style></defs><path class="cls-1" d="m1072.1,936.38c-93.56,76.2-191.35,140.64-272.57,96.41-16.39-8.92-31.79-22.26-48.09-36.38-28.5-24.68-57.96-50.19-97.42-55.85-33.89-4.87-65.68,6.99-93.74,17.48l-7.44,2.77c-90.83,33.44-160.86,34.28-214.09,2.48-17.22-10.27-33.05-24.25-49.81-39.06-20.71-18.29-42.14-37.2-67.85-50.27-57.56-29.28-119.6-22.39-181.08-4.04v50.83c57.23-18.84,111.64-27.6,159.06-3.48,20.22,10.28,38.43,26.37,57.71,43.39,17.69,15.61,35.98,31.76,57.06,44.35,65.75,39.23,151.81,39.7,255.81,1.38l7.64-2.83c24.8-9.27,48.21-17.94,69.83-14.92,25.34,3.64,48.25,23.49,72.51,44.5,17.53,15.19,35.67,30.89,56.67,42.33,26.6,14.47,53.78,20.52,80.8,20.52,95.98,0,189.67-76.31,245.69-121.93,57.12-46.52,103.11-65.49,137.22-56.77v-49.73c-47.05-6.73-103.23,16.16-167.9,68.82Z"/><path class="cls-1" d="m1057.45,743.24c-93.56,76.2-191.35,140.66-272.57,96.41-16.39-8.92-31.79-22.27-48.1-36.4-28.49-24.66-57.95-50.18-97.43-55.85-33.82-4.87-65.65,7.02-93.72,17.5l-7.44,2.77c-90.83,33.44-160.87,34.26-214.09,2.48-17.22-10.28-33.06-24.27-49.84-39.07-20.71-18.29-42.12-37.19-67.83-50.27-53-26.96-109.78-23.23-166.44-8.16v50.37c51.85-15.47,101.05-20.91,144.41,1.1,20.21,10.28,38.41,26.35,57.7,43.39,17.69,15.61,35.99,31.78,57.09,44.37,65.73,39.25,151.8,39.7,255.8,1.38l7.64-2.83c24.82-9.27,48.25-17.99,69.82-14.93,25.35,3.65,48.25,23.49,72.51,44.51,17.54,15.19,35.68,30.89,56.68,42.33,26.6,14.47,53.78,20.52,80.8,20.52,95.98,0,189.67-76.31,245.69-121.93,65.76-53.57,116.78-70.59,151.86-50.89v-52.5c-49.88-14.44-111.03,7.46-182.55,65.71Z"/><path class="cls-2" d="m1133.58,223.8c-58.78,0-106.42,47.65-106.42,106.42,0,27.14,10.25,51.84,26.98,70.64l-130.8,147.72c-17.19-11.92-38.04-18.95-60.54-18.95s-43.44,7.07-60.66,19.04l-166.82-188.04c16.5-18.75,26.58-43.27,26.58-70.2,0-58.78-47.65-106.42-106.42-106.42s-104.91,46.28-106.29,103.86l-197.21,19.48c-10.48-47.77-52.98-83.54-103.89-83.54-58.77,0-106.42,47.65-106.42,106.42s47.65,106.42,106.42,106.42,105.06-46.41,106.3-104.1l197.13-19.47c5.88,27.13,22.06,50.42,44.3,65.5l-51.11,100.28c-11.32-4.1-23.48-6.46-36.22-6.46-58.78,0-106.42,47.65-106.42,106.42s47.65,106.42,106.42,106.42,106.42-47.65,106.42-106.42c0-37-18.9-69.57-47.56-88.64l51.02-100.1c11.57,4.31,24.04,6.78,37.11,6.78,22.72,0,43.73-7.18,61.01-19.3l166.77,187.98c-16.67,18.79-26.88,43.44-26.88,70.53,0,58.78,47.65,106.42,106.42,106.42s106.42-47.65,106.42-106.42c0-27.14-10.25-51.83-26.98-70.63l130.8-147.72c17.19,11.92,38.04,18.95,60.54,18.95,58.77,0,106.42-47.65,106.42-106.42s-47.65-106.42-106.42-106.42ZM148.2,404.27c-40.82,0-73.9-33.09-73.9-73.9s33.09-73.9,73.9-73.9,73.9,33.09,73.9,73.9-33.09,73.9-73.9,73.9Zm260.28,248.43c-40.82,0-73.9-33.09-73.9-73.9s33.09-73.9,73.9-73.9,73.9,33.09,73.9,73.9-33.09,73.9-73.9,73.9Zm146.99-288.37c-40.82,0-73.9-33.09-73.9-73.9s33.09-73.9,73.9-73.9,73.9,33.09,73.9,73.9-33.09,73.9-73.9,73.9Zm307.32,345.62c-40.82,0-73.9-33.09-73.9-73.9s33.09-73.9,73.9-73.9,73.9,33.09,73.9,73.9-33.09,73.9-73.9,73.9Zm270.79-305.83c-40.82,0-73.9-33.09-73.9-73.9s33.09-73.9,73.9-73.9,73.9,33.09,73.9,73.9-33.09,73.9-73.9,73.9Z"/></svg>
